<?xml version="1.0" encoding="UTF-8"?>
<svg id="Layer_1" data-name="Layer 1" xmlns="http://www.w3.org/2000/svg" viewBox="0 0 254.99 39.84">
  <defs>
    <style>
      .cls-1 {
        fill: #fa925b;
      }

      .cls-2 {
        fill: #151250;
      }
    </style>
  </defs>
  <g>
    <path class="cls-1" d="M229.67,1.21c-1.51.02-2.91,1.05-3.34,2.58l-1.86,6.42c-.53,1.83.51,3.7,2.33,4.19l-.14.05c8.66,4.02,14.33,12.24,15.07,21.98.46,1.23,1.58,2.12,2.92,2.22h6.95c1.8-.08,3.24-1.59,3.24-3.45l.05.08c-1.21-15.55-10.79-28.53-25.22-34.07Z"/>
    <path class="cls-1" d="M224.57,22.95c-4.39,0-7.95,3.64-7.95,8.13s3.56,8.13,7.95,8.13,7.95-3.64,7.95-8.13-3.56-8.13-7.95-8.13Z"/>
  </g>
  <g>
    <polygon class="cls-2" points="6.57 2.09 0 39.19 10.1 39.19 16.86 1 6.57 2.09"/>
    <path class="cls-2" d="M27.46,0c-3.11,0-5.84,2.13-6.28,4.91-.49,3.28,1.36,5.4,4.86,5.4,3.11,0,5.79-2.13,6.28-4.86.6-3.33-1.36-5.46-4.86-5.46Z"/>
    <polygon class="cls-2" points="15.72 39.19 25.82 39.19 30.57 12.23 20.47 12.23 15.72 39.19"/>
    <polygon class="cls-2" points="54.64 12.23 50.38 19.76 46.07 28.38 44.81 19.76 43.17 12.23 32.91 12.23 39.57 39.19 49.56 39.19 65.66 12.23 54.64 12.23"/>
    <path class="cls-2" d="M81.06,11.63c-9.22,0-15.56,5.02-17.08,13.86-1.47,8.41,3.88,14.3,13.43,14.3,5.46,0,9.28-1.2,12.88-4.09l-4.04-5.89c-2.18,1.42-4.53,2.18-6.82,2.18-3.17,0-5.35-1.42-5.68-3.55h18.72c3.82-9.55-1.15-16.81-11.41-16.81ZM84.28,23.47h-9.88l.05-.22c.93-2.62,2.78-4.09,5.57-4.09,3.33,0,4.91,1.69,4.26,4.31Z"/>
    <path class="cls-2" d="M113.42,4.64l-10.15,1.09-1.15,6.5h-4.31l-1.37,7.75h4.31l-1.75,10.04c-1.09,6.39,1.8,9.82,8.08,9.82,3.11,0,5.79-.6,8.19-1.8l-.87-7.42c-1.15.49-2.13.71-3.11.71-1.75,0-2.46-.87-2.07-2.89l1.47-8.46h6.11l1.37-7.75h-6.11l1.36-7.59Z"/>
    <path class="cls-2" d="M136.24,11.63c-9.22,0-15.56,5.02-17.08,13.86-1.47,8.41,3.88,14.3,13.43,14.3,5.46,0,9.28-1.2,12.88-4.09l-4.04-5.89c-2.18,1.42-4.53,2.18-6.82,2.18-3.17,0-5.35-1.42-5.68-3.55h18.72c3.82-9.55-1.15-16.81-11.41-16.81ZM139.46,23.47h-9.88l.05-.22c.93-2.62,2.78-4.09,5.57-4.09,3.33,0,4.91,1.69,4.26,4.31Z"/>
    <path class="cls-2" d="M165.66,31.49c-3.38,0-5.18-2.4-4.53-5.89.66-3.55,3.28-5.89,6.82-5.89,1.86,0,3.27.65,4.48,1.96l6.06-5.73c-2.29-2.73-6.06-4.31-10.32-4.31-9.06,0-15.45,5.24-16.92,13.75-1.47,8.57,3.71,14.41,12.88,14.41,4.53,0,7.91-1.2,11.84-4.2l-4.69-6.33c-1.96,1.47-3.71,2.24-5.62,2.24Z"/>
    <path class="cls-2" d="M201.03,11.63c-2.95,0-5.73.98-8.02,2.73l2.34-13.35-10.4,1.09-6.52,37.09h10.1l2.51-14.19c.55-3.11,2.73-5.18,5.51-5.18,2.29,0,3.38,1.75,2.89,4.48l-2.62,14.9h10.1l2.67-15.28c1.36-7.91-1.64-12.28-8.57-12.28Z"/>
  </g>
</svg>